<?xml version="1.0" standalone="no"?>
<!DOCTYPE svg PUBLIC "-//W3C//DTD SVG 20010904//EN"
 "http://www.w3.org/TR/2001/REC-SVG-20010904/DTD/svg10.dtd">
<svg version="1.0" xmlns="http://www.w3.org/2000/svg"
 width="4961.000000pt" height="3508.000000pt" viewBox="0 0 4961.000000 3508.000000"
 preserveAspectRatio="xMidYMid meet">
<metadata>
Created by potrace 1.16, written by Peter Selinger 2001-2019
</metadata>
<g transform="translate(0.000000,3508.000000) scale(0.100000,-0.100000)"
fill="#000000" stroke="none">
<path d="M4905 24851 c-6 -5 -90 -55 -187 -111 -154 -88 -176 -104 -168 -120
5 -9 60 -105 121 -211 62 -107 120 -207 129 -224 19 -34 273 -473 300 -520
132 -229 288 -498 305 -530 l23 -40 894 0 893 0 0 220 0 219 -765 1 -765 0
-67 115 c-37 63 -74 126 -81 140 -8 14 -74 129 -147 255 -73 127 -144 251
-159 276 -14 25 -86 151 -160 280 -74 129 -139 240 -145 247 -7 7 -16 9 -21 3z"/>
<path d="M43674 23760 c-12 -5 -25 -13 -28 -19 -4 -5 -39 -28 -79 -51 -39 -23
-117 -68 -172 -100 -55 -32 -140 -81 -190 -108 -49 -28 -106 -64 -125 -80
l-35 -30 -3 -363 c-2 -200 0 -374 3 -386 8 -32 39 -58 130 -109 44 -25 125
-71 180 -104 276 -162 318 -183 365 -183 47 -1 43 -2 355 178 55 32 145 83
200 114 61 34 104 66 112 81 17 33 19 747 2 783 -7 15 -42 40 -92 67 -45 23
-118 64 -162 90 -171 100 -272 159 -314 181 -24 13 -53 30 -65 36 -24 15 -52
15 -82 3z m78 -91 c18 -11 80 -48 138 -81 58 -33 146 -84 195 -113 50 -29 123
-70 162 -91 l73 -39 0 -355 0 -356 -27 -12 c-16 -6 -73 -38 -128 -70 -255
-149 -437 -252 -445 -252 -4 0 -36 16 -70 35 -34 19 -63 35 -65 35 -2 0 -32
17 -67 39 -35 21 -108 64 -163 96 -55 32 -130 76 -167 97 l-68 40 0 347 0 346
63 38 c34 21 98 59 142 84 288 163 345 197 365 217 19 20 22 20 62 -5z"/>
<path d="M12520 23466 c-19 -13 -62 -38 -95 -56 -33 -18 -77 -44 -97 -57 -21
-12 -40 -23 -43 -23 -2 0 -26 -13 -52 -29 -27 -16 -68 -40 -93 -54 -25 -14
-46 -32 -48 -40 -2 -11 96 -194 138 -257 6 -8 13 -22 17 -30 4 -8 24 -43 45
-78 21 -34 38 -65 38 -68 0 -3 15 -28 33 -57 18 -29 36 -59 39 -68 4 -10 29
-53 57 -98 28 -44 51 -83 51 -86 0 -3 11 -22 23 -43 13 -20 39 -64 57 -97 18
-33 42 -73 52 -90 10 -16 21 -37 25 -45 4 -8 47 -82 95 -163 48 -82 88 -151
88 -153 0 -2 18 -33 40 -69 22 -36 40 -67 40 -70 0 -4 49 -88 90 -155 5 -8 21
-37 35 -64 30 -55 32 -49 -37 -164 -21 -34 -38 -65 -38 -67 0 -3 -12 -24 -26
-47 -27 -42 -117 -198 -162 -278 -14 -25 -36 -62 -49 -82 -12 -21 -23 -40 -23
-42 0 -2 -40 -72 -90 -156 -49 -84 -90 -154 -90 -156 0 -2 -18 -33 -40 -69
-22 -36 -40 -67 -40 -70 0 -4 -67 -119 -90 -155 -6 -8 -13 -22 -17 -30 -4 -8
-16 -31 -28 -50 -12 -19 -33 -55 -47 -80 -32 -57 -167 -289 -182 -313 -7 -11
-8 -22 -1 -33 8 -13 399 -244 412 -244 3 0 18 -9 34 -21 32 -23 56 -20 66 8 4
10 21 41 39 69 18 27 46 75 62 105 39 71 159 280 172 299 6 8 13 22 17 30 4 8
24 43 45 78 21 34 38 65 38 68 0 3 16 30 35 60 19 30 35 56 35 59 0 2 25 45
55 95 30 50 55 93 55 95 0 3 18 34 40 70 22 36 40 67 40 70 0 2 20 37 43 77
57 96 187 320 223 383 15 28 36 64 46 80 10 17 21 37 25 45 3 8 16 31 28 50
12 19 34 58 50 85 15 28 45 80 67 117 l39 66 -25 41 c-14 22 -26 43 -26 46 0
3 -11 22 -23 43 -21 33 -73 123 -101 177 -6 11 -21 34 -33 52 -13 17 -23 34
-23 37 0 3 -36 66 -80 142 -44 75 -80 138 -80 140 0 3 -70 122 -90 154 -6 8
-13 22 -17 30 -4 8 -40 70 -80 138 -40 68 -73 125 -73 128 0 3 -68 120 -90
154 -6 8 -13 21 -17 29 -3 8 -35 64 -71 125 -36 61 -76 131 -90 156 -14 25
-35 61 -47 80 -12 19 -25 42 -29 50 -4 8 -12 24 -19 35 -37 62 -123 212 -139
243 -14 28 -43 27 -88 -2z"/>
<path d="M36640 23275 c-165 -37 -314 -156 -390 -310 -64 -129 -61 6 -57
-2333 3 -2111 3 -2128 24 -2267 65 -425 183 -757 406 -1135 305 -517 810 -970
1349 -1213 828 -371 1789 -350 2593 58 834 423 1411 1183 1609 2121 45 214 59
383 53 639 -8 335 -50 573 -157 895 -96 290 -199 501 -365 750 -117 176 -198
274 -360 436 -242 244 -468 405 -780 559 -415 204 -786 301 -1240 321 -628 27
-1330 -185 -1880 -570 -44 -31 -83 -56 -87 -56 -4 0 -9 377 -10 838 l-3 837
-26 66 c-65 166 -208 302 -376 355 -71 22 -225 27 -303 9z m2780 -2645 c220
-28 415 -86 599 -180 212 -108 392 -231 505 -344 267 -267 464 -646 525 -1006
78 -456 -4 -908 -229 -1275 -256 -418 -633 -708 -1090 -840 -314 -91 -600
-105 -887 -45 -317 66 -689 257 -902 463 -325 316 -528 730 -582 1192 -14 120
-7 387 14 500 52 278 160 536 315 754 79 111 254 296 361 383 262 212 578 347
916 392 123 17 342 20 455 6z"/>
<path d="M18560 21804 c-19 -2 -78 -9 -130 -15 -226 -25 -486 -92 -711 -182
-563 -227 -1034 -595 -1375 -1077 -247 -348 -435 -787 -509 -1184 -51 -276
-50 -259 -50 -1731 l0 -1380 22 -70 c58 -185 222 -341 409 -390 74 -19 210
-19 293 0 144 34 294 147 358 270 17 33 55 123 83 200 90 240 181 403 325 575
297 356 754 594 1225 639 135 13 130 13 1228 12 l932 -1 0 -613 c0 -518 2
-622 15 -672 49 -188 224 -358 421 -409 77 -20 209 -20 292 -1 189 45 350 201
418 405 18 52 19 126 22 1285 3 1286 -2 1549 -37 1775 -79 505 -282 974 -610
1405 -95 126 -386 419 -511 515 -300 231 -624 403 -969 514 -290 93 -506 126
-851 131 -140 2 -271 1 -290 -1z m441 -1175 c549 -55 1029 -344 1340 -806 121
-179 234 -451 279 -670 19 -99 40 -323 40 -450 l0 -62 -1132 -4 c-1099 -3
-1137 -4 -1263 -24 -462 -75 -842 -220 -1208 -459 -54 -35 -100 -64 -102 -64
-10 0 -5 747 5 860 57 643 436 1196 1027 1498 305 155 654 218 1014 181z"/>
<path d="M23370 21794 c-188 -50 -347 -201 -413 -394 l-22 -65 -3 -2530 c-2
-1833 0 -2547 8 -2590 38 -200 224 -391 431 -440 315 -74 610 97 708 410 14
44 16 245 21 1771 l5 1721 1670 -1879 c933 -1050 1692 -1896 1720 -1917 117
-87 217 -121 358 -121 170 1 284 47 402 165 86 85 128 155 162 270 17 57 18
192 18 2605 l0 2545 -23 64 c-61 168 -194 305 -360 368 -90 34 -237 42 -336
19 -188 -44 -351 -199 -419 -396 l-22 -65 -5 -1723 -5 -1722 -1684 1890 c-926
1039 -1704 1905 -1730 1924 -64 46 -117 72 -188 90 -75 20 -219 20 -293 0z"/>
<path d="M31760 21795 c-684 -78 -1331 -400 -1826 -906 -439 -450 -737 -1050
-828 -1669 -32 -217 -37 -468 -34 -1735 l3 -1250 24 -70 c63 -190 221 -341
407 -389 79 -20 222 -21 299 -1 128 34 244 111 320 215 38 52 87 161 126 278
58 179 180 389 323 560 295 351 749 587 1216 631 135 13 130 13 1227 12 l932
-1 3 -632 3 -633 26 -66 c69 -178 232 -322 411 -364 81 -19 218 -19 291 0 171
44 327 180 391 341 47 117 48 134 43 1564 -4 1428 -3 1413 -52 1665 -98 509
-351 1029 -691 1420 -325 374 -733 660 -1209 848 -212 83 -384 129 -640 168
-173 27 -583 35 -765 14z m531 -1165 c134 -14 274 -42 391 -80 128 -41 374
-166 487 -247 373 -268 650 -695 740 -1140 23 -114 41 -299 41 -430 l0 -92
-1132 -4 c-1100 -3 -1137 -4 -1263 -24 -212 -35 -320 -61 -505 -123 -268 -89
-477 -190 -702 -337 -53 -34 -99 -63 -102 -63 -10 0 -6 689 4 828 36 468 220
865 552 1188 406 397 929 580 1489 524z"/>
<path d="M43602 21395 c-210 -46 -380 -211 -440 -428 -16 -58 -17 -216 -17
-2382 l0 -2320 27 -80 c68 -198 238 -355 426 -394 128 -27 286 -6 396 51 84
44 214 175 255 255 66 131 61 -55 61 2498 0 2552 4 2362 -62 2495 -47 94 -162
206 -258 253 -127 63 -257 80 -388 52z"/>
<path d="M7585 20616 c-27 -18 -77 -48 -110 -66 -33 -18 -64 -36 -70 -40 -5
-4 -31 -19 -57 -33 -116 -64 -188 -111 -188 -123 0 -8 17 -42 38 -76 21 -35
56 -94 77 -133 22 -38 45 -79 52 -90 7 -11 17 -29 22 -40 6 -11 24 -42 40 -70
16 -27 36 -61 44 -75 8 -14 65 -113 127 -220 62 -107 124 -215 138 -240 14
-25 36 -62 49 -82 12 -21 23 -40 23 -43 0 -3 23 -41 50 -85 28 -44 50 -82 50
-85 0 -2 18 -34 40 -70 22 -36 40 -67 40 -70 0 -3 18 -34 40 -70 22 -36 40
-67 40 -70 0 -3 19 -35 42 -72 59 -98 78 -132 78 -145 0 -8 -54 -106 -110
-198 -41 -66 -90 -151 -90 -154 0 -2 -32 -59 -72 -127 -39 -68 -80 -140 -91
-159 -10 -19 -34 -60 -52 -90 -104 -175 -125 -211 -125 -215 0 -3 -18 -34 -40
-70 -22 -36 -40 -67 -40 -69 0 -2 -37 -66 -81 -142 -45 -76 -93 -159 -107
-184 -14 -25 -36 -62 -49 -82 -12 -21 -23 -40 -23 -43 0 -2 -18 -34 -40 -70
-22 -36 -40 -69 -40 -74 0 -5 -7 -14 -15 -21 -27 -23 -17 -47 33 -77 26 -16
54 -32 62 -36 8 -4 29 -15 45 -25 17 -11 91 -54 165 -97 74 -42 141 -82 147
-87 22 -18 39 -2 81 74 68 119 97 169 140 241 23 37 42 69 42 72 0 3 18 34 40
70 22 36 40 67 40 70 0 3 18 34 40 70 22 36 40 67 40 70 0 3 18 34 40 70 22
36 40 68 40 70 0 3 23 41 50 85 28 44 50 82 50 85 0 3 11 22 23 43 13 20 35
57 49 82 42 75 249 433 269 465 10 17 22 37 26 45 3 8 16 31 28 50 12 19 33
55 47 80 14 25 55 98 92 162 l68 118 -34 57 c-18 32 -38 67 -45 78 -7 11 -15
27 -19 35 -4 8 -25 43 -46 78 -21 34 -38 65 -38 68 0 3 -16 30 -35 60 -19 30
-35 57 -35 59 0 3 -24 45 -53 93 -29 48 -56 94 -60 102 -4 8 -15 29 -25 45
-10 17 -34 57 -52 90 -18 33 -44 77 -57 97 -12 21 -23 40 -23 43 0 5 -84 147
-112 187 -10 15 -18 29 -18 31 0 3 -29 55 -65 117 -36 62 -65 114 -65 116 0 2
-17 32 -38 66 -21 35 -50 83 -64 108 -14 25 -55 95 -90 156 -36 61 -68 117
-72 125 -4 8 -12 23 -19 34 -26 43 -83 141 -92 160 -15 29 -34 27 -90 -9z"/>
<path d="M12535 17812 c-17 -9 -68 -39 -115 -67 -47 -27 -97 -57 -111 -65 -15
-8 -70 -40 -123 -70 -53 -30 -96 -61 -96 -68 0 -7 20 -47 44 -90 24 -42 52
-93 63 -112 11 -19 39 -65 61 -103 23 -37 42 -70 42 -72 0 -3 11 -22 23 -43
13 -20 35 -57 49 -82 44 -80 220 -384 245 -422 12 -21 23 -40 23 -43 0 -2 17
-33 38 -67 21 -35 41 -70 45 -78 4 -8 15 -28 26 -45 19 -32 205 -352 228 -395
8 -14 28 -47 44 -75 16 -27 37 -64 46 -81 17 -34 18 -30 -62 -166 -5 -9 -20
-34 -31 -55 -60 -108 -165 -289 -196 -339 -14 -21 -37 -61 -53 -89 -53 -96
-193 -341 -252 -440 -32 -55 -62 -107 -66 -115 -4 -8 -21 -37 -37 -65 -17 -27
-35 -59 -40 -70 -6 -11 -19 -33 -29 -50 -72 -118 -211 -366 -211 -377 0 -14 7
-19 95 -68 33 -18 65 -36 70 -40 6 -4 31 -19 56 -33 25 -14 94 -53 154 -88 79
-46 111 -60 122 -53 14 8 68 97 155 254 17 30 42 72 55 92 12 21 23 40 23 43
0 3 23 42 50 86 28 44 50 82 50 84 0 4 123 217 161 280 11 17 23 39 29 50 5
11 23 43 40 70 16 28 33 57 37 65 4 8 40 71 80 139 40 67 73 125 73 127 0 2
18 33 40 69 22 36 40 67 40 70 0 4 54 97 90 155 5 8 24 42 43 75 39 68 50 87
141 244 l66 114 -82 144 c-46 79 -90 156 -99 171 -9 15 -28 50 -43 77 -16 28
-52 91 -81 140 -63 107 -178 306 -226 390 -19 33 -39 69 -46 80 -7 11 -15 27
-19 35 -4 8 -25 43 -46 78 -21 34 -38 64 -38 66 0 2 -37 66 -81 142 -45 76
-93 159 -107 184 -14 25 -35 61 -47 80 -12 19 -25 42 -28 50 -4 8 -21 38 -37
65 -17 28 -35 59 -41 70 -5 11 -15 29 -22 40 -7 11 -30 52 -51 90 -75 134 -78
137 -131 107z"/>
<path d="M21381 14534 c-50 -36 -51 -45 -51 -604 0 -555 2 -574 48 -599 12 -6
38 -11 59 -11 51 0 89 38 99 98 l7 43 46 -44 c71 -69 120 -90 220 -95 102 -5
173 17 238 73 182 156 203 531 40 712 -74 82 -198 121 -318 102 -72 -12 -125
-37 -178 -84 -21 -19 -41 -35 -45 -35 -3 0 -6 81 -6 180 0 194 -8 233 -51 264
-13 9 -37 16 -54 16 -17 0 -41 -7 -54 -16z m479 -499 c59 -30 94 -92 112 -194
24 -138 -19 -272 -104 -329 -34 -22 -52 -27 -102 -26 -71 1 -110 18 -154 68
-78 89 -84 304 -11 410 57 84 172 115 259 71z"/>
<path d="M31547 14530 c-15 -12 -31 -38 -37 -58 -6 -23 -10 -228 -10 -545 0
-545 1 -555 51 -591 38 -26 93 -21 131 13 l33 29 3 529 c2 356 0 540 -8 565
-21 72 -106 102 -163 58z"/>
<path d="M40779 14527 c-62 -41 -64 -65 -41 -415 12 -169 27 -325 34 -347 16
-48 53 -70 91 -56 41 16 55 76 77 325 32 367 27 459 -31 500 -33 23 -90 20
-130 -7z"/>
<path d="M28998 14491 l-33 -29 -3 -131 c-4 -130 -4 -131 -27 -131 -127 0
-141 -140 -16 -157 l41 -6 0 -267 c0 -301 7 -344 62 -396 18 -17 48 -36 67
-43 52 -17 208 -13 260 7 81 31 100 106 38 147 -19 12 -33 13 -78 5 -64 -12
-105 -5 -119 20 -6 11 -10 124 -10 274 l0 256 33 0 c47 0 110 19 125 38 6 9
12 30 12 47 0 48 -29 68 -106 73 l-64 4 -1 72 c-1 138 -12 186 -47 217 -44 39
-90 39 -134 0z"/>
<path d="M35024 14486 l-34 -34 0 -126 0 -126 -25 0 c-73 0 -116 -45 -101
-106 7 -27 56 -54 100 -54 l25 0 3 -292 c3 -290 3 -293 28 -336 38 -68 77 -86
193 -90 111 -5 174 8 213 44 34 32 31 88 -7 116 -24 18 -32 19 -82 9 -65 -14
-103 -7 -120 23 -8 14 -13 98 -15 272 l-3 251 59 6 c76 8 111 24 118 54 17 65
-28 103 -121 103 l-55 0 0 126 0 126 -34 34 c-26 26 -42 34 -71 34 -29 0 -45
-8 -71 -34z"/>
<path d="M40168 14491 l-33 -29 -3 -130 -4 -130 -40 -5 c-47 -6 -88 -41 -88
-73 0 -38 40 -75 88 -81 l42 -6 0 -258 c0 -150 5 -280 11 -309 14 -64 55 -113
113 -135 62 -24 225 -18 281 10 50 25 72 65 55 104 -17 42 -48 52 -121 39 -55
-9 -63 -9 -87 9 l-27 20 -3 260 -2 260 54 6 c86 9 110 24 114 73 4 57 -21 77
-104 82 l-64 4 0 87 c-1 124 -12 170 -49 203 -43 38 -90 38 -133 -1z"/>
<path d="M22653 14205 c-161 -44 -262 -153 -298 -320 -27 -127 -11 -259 42
-356 38 -71 129 -152 200 -180 88 -33 258 -39 350 -11 190 58 299 243 163 277
-26 6 -33 2 -155 -95 -27 -22 -66 -45 -85 -50 -82 -23 -176 -5 -229 43 -33 31
-71 115 -71 159 l0 37 258 3 c233 3 261 5 297 23 53 27 71 75 56 158 -36 202
-192 328 -406 326 -38 0 -94 -7 -122 -14z m235 -172 c43 -34 68 -80 81 -146
l8 -47 -203 0 -204 0 0 24 c0 32 25 101 50 136 54 75 193 93 268 33z"/>
<path d="M23643 14205 c-201 -56 -307 -210 -306 -445 1 -195 80 -328 242 -403
58 -27 78 -31 177 -35 130 -5 215 15 297 69 109 72 146 178 75 215 -39 20 -60
12 -138 -54 -83 -71 -129 -92 -204 -92 -73 0 -134 27 -171 77 -28 36 -55 109
-55 149 l0 22 263 4 c243 3 265 4 297 24 49 28 62 58 57 129 -11 140 -85 248
-213 311 -67 34 -83 37 -172 40 -65 3 -114 -1 -149 -11z m231 -165 c39 -27 80
-99 91 -162 l6 -38 -206 0 c-229 0 -215 -6 -190 78 18 59 65 118 110 139 47
21 145 12 189 -17z"/>
<path d="M24993 14210 c-106 -22 -178 -73 -217 -152 -45 -90 -27 -180 49 -247
50 -44 114 -71 254 -110 62 -18 130 -40 151 -51 69 -35 78 -119 17 -162 -25
-18 -49 -24 -109 -27 -96 -4 -154 20 -195 81 -49 72 -79 98 -113 98 -41 0 -90
-47 -90 -87 1 -77 78 -165 179 -205 77 -30 260 -37 352 -14 115 30 192 97 218
192 35 127 -19 225 -159 286 -25 11 -103 35 -174 54 -146 39 -180 56 -197 97
-25 60 41 117 134 117 68 0 104 -19 173 -89 52 -52 66 -61 97 -61 42 0 83 32
92 70 15 66 -77 162 -188 195 -63 19 -217 27 -274 15z"/>
<path d="M25745 14206 c-58 -25 -60 -38 -63 -413 -3 -365 1 -407 43 -449 29
-29 98 -33 134 -8 45 32 51 68 51 292 0 278 16 358 79 395 41 24 114 32 151
17 61 -25 64 -44 70 -368 l5 -294 33 -29 c60 -54 161 -29 176 43 3 12 7 131 9
263 4 213 6 245 24 285 61 139 233 147 264 13 5 -21 9 -152 9 -291 0 -271 3
-292 52 -326 12 -9 41 -16 65 -16 53 0 91 31 103 85 13 54 12 492 0 580 -19
129 -88 202 -214 224 -109 19 -205 -11 -287 -89 -23 -22 -43 -39 -44 -38 -18
37 -66 82 -111 104 -114 56 -263 28 -361 -69 l-43 -41 0 37 c0 73 -79 123
-145 93z"/>
<path d="M27422 14210 c-61 -13 -152 -56 -185 -88 -99 -94 -84 -228 25 -220
39 3 46 8 83 61 57 82 90 100 189 104 64 3 88 0 116 -14 41 -21 70 -73 70
-125 0 -44 15 -38 -260 -99 -196 -44 -245 -67 -294 -137 -25 -35 -31 -55 -34
-110 -5 -83 21 -146 80 -197 112 -95 312 -88 468 18 l55 38 25 -33 c50 -66 80
-88 120 -88 28 0 46 8 69 29 37 34 37 40 11 133 -17 61 -20 103 -20 258 0 264
-18 341 -94 408 -20 17 -59 39 -88 48 -62 19 -271 28 -336 14z m296 -534 c-4
-71 -9 -91 -32 -126 -36 -55 -109 -90 -189 -90 -97 0 -147 41 -147 123 0 73
32 95 208 138 81 21 151 38 156 38 5 1 7 -37 4 -83z"/>
<path d="M28224 14209 c-11 -6 -29 -25 -40 -42 -17 -29 -19 -58 -22 -347 -5
-384 0 -433 38 -472 54 -54 159 -27 174 44 3 12 7 120 10 238 6 271 22 340 89
380 38 24 87 25 153 5 68 -21 81 -19 115 14 61 61 18 143 -91 175 -107 32
-176 10 -237 -76 l-38 -53 -3 30 c-9 91 -76 138 -148 104z"/>
<path d="M30515 14211 c-11 -5 -29 -19 -40 -31 -19 -21 -20 -38 -23 -559 -2
-373 0 -548 8 -574 23 -77 138 -87 177 -14 15 27 18 65 21 230 l4 197 58 -54
c77 -71 133 -90 244 -84 167 9 276 106 332 293 25 85 23 239 -5 325 -54 170
-180 270 -341 273 -94 1 -159 -24 -229 -89 l-58 -54 -7 41 c-9 53 -30 85 -68
98 -36 13 -45 13 -73 2z m472 -187 c33 -19 49 -39 74 -90 30 -61 33 -74 33
-163 0 -83 -4 -104 -27 -154 -49 -107 -128 -151 -228 -127 -109 26 -169 126
-169 280 0 107 21 172 75 225 68 69 156 79 242 29z"/>
<path d="M32202 14210 c-61 -13 -152 -56 -185 -88 -99 -94 -84 -228 25 -220
39 3 46 8 83 61 57 82 90 100 189 104 64 3 88 0 116 -14 41 -21 70 -73 70
-125 0 -45 27 -35 -341 -117 -168 -38 -240 -105 -247 -230 -6 -103 33 -174
126 -228 38 -22 61 -28 133 -31 109 -5 196 19 284 78 l60 41 20 -28 c49 -68
82 -93 121 -93 41 0 74 21 93 57 9 18 7 39 -9 102 -16 66 -20 111 -20 263 0
265 -19 342 -97 407 -21 18 -60 39 -88 47 -59 19 -270 27 -333 14z m296 -534
c-4 -70 -9 -91 -30 -124 -37 -55 -113 -92 -190 -92 -100 0 -148 39 -148 121 0
51 27 88 78 107 28 10 256 68 281 70 11 2 13 -15 9 -82z"/>
<path d="M33000 14207 c-14 -7 -33 -28 -42 -47 -16 -31 -18 -72 -18 -388 0
-378 3 -402 51 -436 30 -20 88 -21 117 0 44 31 47 47 52 315 l5 256 30 48 c42
68 100 98 179 93 51 -4 63 -9 87 -36 43 -48 49 -88 49 -350 0 -260 5 -293 51
-326 13 -9 39 -16 59 -16 45 0 78 23 96 66 17 41 20 519 4 605 -29 154 -173
249 -336 222 -81 -14 -129 -38 -186 -93 l-47 -45 -6 35 c-17 91 -77 131 -145
97z"/>
<path d="M34221 14205 c-199 -56 -307 -213 -305 -445 1 -141 41 -244 126 -327
82 -80 175 -112 324 -113 108 0 195 23 267 71 108 71 144 184 70 218 -35 16
-58 6 -133 -57 -90 -77 -135 -95 -221 -90 -56 3 -76 9 -111 33 -49 35 -88 104
-95 169 l-5 44 263 4 c244 3 267 5 299 23 51 30 67 79 53 161 -23 131 -91 222
-209 280 -67 34 -83 37 -172 40 -66 3 -114 -1 -151 -11z m202 -149 c61 -26
106 -91 121 -178 l7 -38 -206 0 c-229 0 -215 -6 -190 78 18 59 65 119 110 138
40 17 118 17 158 0z"/>
<path d="M36164 14210 c-177 -38 -281 -180 -230 -314 34 -89 117 -140 315
-195 136 -38 183 -61 199 -96 39 -85 -24 -145 -154 -145 -86 0 -143 26 -181
82 -49 72 -79 98 -113 98 -41 0 -90 -47 -90 -87 1 -77 77 -164 179 -205 49
-20 73 -23 201 -23 172 1 230 18 304 90 103 100 100 268 -8 347 -58 43 -113
65 -260 104 -146 39 -180 56 -197 97 -25 60 41 117 134 117 68 0 108 -20 175
-89 50 -52 64 -61 94 -61 44 0 84 30 93 70 15 68 -75 161 -188 195 -63 19
-217 27 -273 15z"/>
<path d="M36914 14206 c-57 -25 -59 -43 -59 -436 0 -381 3 -403 51 -435 30
-19 93 -19 122 1 44 31 47 47 52 314 5 247 6 257 30 304 14 28 36 58 50 68 34
25 112 34 150 18 61 -25 64 -45 70 -360 4 -203 9 -291 18 -307 41 -73 153 -71
191 4 7 13 11 88 11 195 1 208 13 345 34 386 9 17 33 44 53 59 29 22 47 28 89
28 62 0 98 -27 114 -84 5 -20 10 -150 10 -289 0 -271 5 -303 51 -336 13 -9 43
-16 67 -16 58 0 97 38 107 103 4 25 5 169 3 319 -3 270 -4 274 -30 330 -44 96
-128 141 -259 141 -80 0 -155 -31 -217 -90 l-42 -39 -30 37 c-16 21 -55 50
-86 65 -111 54 -252 30 -351 -60 -22 -20 -43 -36 -47 -36 -3 0 -6 13 -6 30 0
38 -45 88 -85 95 -16 3 -44 -1 -61 -9z"/>
<path d="M38592 14210 c-61 -13 -152 -56 -185 -88 -98 -92 -84 -222 23 -222
38 0 43 4 83 59 67 93 92 106 208 106 83 0 100 -3 119 -20 29 -26 50 -75 50
-119 0 -41 14 -36 -260 -97 -201 -45 -248 -68 -294 -143 -81 -131 -15 -301
136 -352 37 -12 73 -15 142 -12 99 5 159 26 246 87 l45 31 25 -32 c52 -68 80
-88 122 -88 30 0 46 7 69 29 34 35 35 45 9 136 -17 59 -20 100 -20 262 0 197
-9 271 -41 334 -26 51 -80 96 -141 115 -62 19 -271 28 -336 14z m302 -517
c-11 -127 -36 -171 -118 -209 -60 -28 -151 -32 -196 -9 -64 33 -80 123 -31
177 25 28 45 36 177 69 82 20 155 38 162 38 10 1 11 -15 6 -66z"/>
<path d="M39378 14191 l-33 -29 -3 -378 c-3 -397 -1 -420 42 -449 28 -20 96
-19 122 3 39 31 44 55 44 214 1 419 55 521 246 463 68 -21 81 -19 115 14 63
64 20 143 -97 177 -97 28 -171 5 -225 -71 -37 -51 -49 -56 -49 -20 0 58 -47
105 -104 105 -14 0 -40 -13 -58 -29z"/>
<path d="M29615 13545 c-119 -42 -107 -199 18 -229 20 -5 27 -12 27 -30 0 -28
-39 -79 -80 -103 -54 -31 -57 -96 -6 -109 54 -13 141 58 187 155 33 69 38 193
10 249 -34 67 -88 90 -156 67z"/>
<path d="M40815 13553 c-38 -10 -75 -44 -86 -82 -25 -82 30 -151 120 -151 95
0 147 115 86 189 -31 36 -79 54 -120 44z"/>
</g>
</svg>
